<svg id="图层_1" data-name="图层 1" xmlns="http://www.w3.org/2000/svg" viewBox="0 0 500 500"><defs><style>.cls-1{fill:#021d6c;}</style></defs><title>画板 1</title><path class="cls-1" d="M335.88,332.51c.57-4.64,0-5.73-2.92-7.26a18.7,18.7,0,0,0-7.7-1.76c-4.41-.26-8.84-.07-13.24-.15-1.82,0-2.64.73-2.71,2.6-.31,7.84-.17,15.69,3.18,23,2.73,6,1.93,11.19-1.35,16.7-8.1,13.74-17.67,26.42-27.33,39.05-7,9.12-14,18.23-21.67,26.76-2.78,3.07-5.61,6.08-9.22,8.18a18.54,18.54,0,0,1-3.55,1.74c-3.42,1.13-5.12.33-5.78-3.18-1-5.35-1.76-10.72-2.38-16.14-2.4-21.49-4.78-43-7-64.51-.56-5.7-.94-11.43-1.08-17.18-.1-3.58,1.29-5.32,4.5-6.52,7.3-2.76,14.51-5.75,21.72-8.7a132.7,132.7,0,0,0,17.3-8.81,14.56,14.56,0,0,0,5.68-6,6.6,6.6,0,0,0,.66-4.69,80.91,80.91,0,0,0-4.76-14.68c-1.44-3.3-2.38-3.77-5.85-2.82a47,47,0,0,0-7,2.54c-15.79,7.07-32.38,11.64-49.06,15.9-3.7.95-7.4,2-11.14,2.78a4.62,4.62,0,0,0-4,4.55c-.82,11,.66,21.44,6.95,30.82a59.35,59.35,0,0,1,3.68,6c1.81,3.53,1,5.51-2.81,6.72-4.66,1.48-9.54,1.81-14.37,2.09-2,.12-4.12-.05-6.2.05s-3.11-.59-3.32-2.95c-.35-3.81-.4-7.63-.8-11.42-.94-8.91-1.91-17.82-4-26.58-.94-3.91-3.2-6.48-6.17-8.79-3.53-2.76-7.63-4.43-11.64-6.27-3-1.36-4.36-3-4.85-6.48-1.86-12.91-1.51-25.84-1.25-38.8.14-7.52.47-15,1.25-22.48,1.62-15.51,8.67-27.9,20.38-37.89,1.22-1.06,2.52-2.07,3.63-3.23,3.56-3.72,7.94-4.73,12.91-4.26a46.66,46.66,0,0,1,14.8,4.19,136.37,136.37,0,0,1,30,18.38c8.13,6.57,16.14,13.27,24.24,19.86a77.61,77.61,0,0,1,8.09,8.13c9.82,10.75,21,20.15,30.11,31.65,7,8.88,14.51,17.38,21.82,26.05a16.09,16.09,0,0,0,1.13,1.37c.61.59,1.15,1.53,2.16,1.2s.74-1.43.71-2.28a94.2,94.2,0,0,1,1-18.92,120.57,120.57,0,0,0,1.51-19.32A141.51,141.51,0,0,0,322.62,217c-2.78-8.29-8.72-14.58-14.94-20.52a44.07,44.07,0,0,0-4.43-3.63c-3-2.19-5.91-4.15-7.44-8.15-1.63-4.2-5.68-7-9.26-9.9-7.14-5.65-14.35-11.12-23.07-14.35-11.83-4.4-23.94-4.4-36.17-2.94-8,.94-16,2.4-24,3.65a33.57,33.57,0,0,1-9.23.07,4.4,4.4,0,0,1-3.87-2.92c-3.41-7.07-5.46-14.61-8.2-21.91-6.69-17.93-13.24-35.94-19.81-53.89a138.45,138.45,0,0,1-5.4-17.25c-.89-4-.4-5.13,3.44-6.15,20-5.23,40.29-6.9,60.84-3.77,9.78,1.49,18.4,6,27,10.65,16.21,8.82,28.15,22.13,38.24,37.18A258,258,0,0,1,312.7,154c9.92,25.76,17.15,52.31,22.67,79.36,6.59,32.35,11.16,65,14.58,97.78,1.58,15.22,3.16,30.45,4.17,45.71.71,10.87,1.3,21.75,1.89,32.61a61.84,61.84,0,0,1,0,8.39c-.21,2.55,1,6.32-3,6.83-6.2.81-8.55.55-10.77-4.28a50.5,50.5,0,0,1-2.31-6.67c-4.61-15.84-8.1-32-12.25-47.9-1.88-7.26-3.91-14.49-5.86-21.73-.85-3.13-2-5.68-6-5.79-2.61-.07-3.91-2.38-4.1-5.47-.21-3.32,1-5.63,4.1-6.5,5.45-1.53,10.79-1.32,15.51,2.38C332.68,329.89,334,331,335.88,332.51Z"/><path class="cls-1" d="M292.32,185.79c-1.18.94-2.1.35-3,0A116.15,116.15,0,0,0,258,178.58c-10.75-.9-21.14.24-30.7,5.75a25.44,25.44,0,0,0-5.78,4.76,21,21,0,0,1-4.8,3.84c-.66.38-1.86.73-2,.16-.54-3.72-3.6-2.14-5.49-2.61-6-1.46-11.66-4.1-17.79-5.19a5,5,0,0,1-2.26-1.31,34.31,34.31,0,0,1-7.63-10.21c-1.42-3-.83-3.86,2.4-4.33a99.2,99.2,0,0,1,12.77-.54c8.91-.19,17.06-3,25.19-6a60,60,0,0,1,22.41-4.22,47.82,47.82,0,0,1,26.76,8.93,191.64,191.64,0,0,1,18,14.25C290.36,183,291.8,184.07,292.32,185.79Z"/><path class="cls-1" d="M322,289.25c-1.72-.64-2.85-2.21-4.1-3.58-11.4-12.51-22.76-25-34.56-37.16-18.76-19.25-39.52-36.1-61.6-51.34a11.2,11.2,0,0,1-3.53-3.13c2.66-2.71,6-4.48,9.28-6.25,6.25-3.37,12.77-5.75,20-6.15a93.63,93.63,0,0,1,45.05,8.48c6.7,3.09,12,8.49,16.95,13.95,6.64,7.28,11.82,15.46,14.09,25.17,1.08,4.71,1.41,9.59,2.16,14.37,2.17,13.69,1.13,27.26-1.67,40.76-.23,1.16-.59,2.26-.89,3.42A2.32,2.32,0,0,1,322,289.25Z"/><path class="cls-1" d="M170.39,313.94c2.16,1.51,1.67,4.24,3.39,5.78a17.78,17.78,0,0,1,4,4.66c1.58,2.85,2,6.15,2.15,9.4.35,6.32.59,12.63.89,19,.1,1.76.12,3.53.33,5.27.4,3.37,1.23,6.32,5.49,6.79,2.52.28,3.51,2.57,4,4.76.61,2.57,1,5.21,1.35,7.82q3.89,27.28,6.47,54.76c0,.45.12.87.17,1.32.26,4.12-.61,5.94-3,6.46s-6.46-1.68-7.28-4.58c-1.11-3.81-2-7.7-2.71-11.59-5.18-27.61-9.4-55.37-13.24-83.2-1.06-7.72-1.79-15.48-2.64-23.23A3.79,3.79,0,0,1,170.39,313.94Z"/><path class="cls-1" d="M258.48,303.53c-1.32,2.57-3.48,3.91-5.44,5.32a38.25,38.25,0,0,1-26.58,7.52c-1.36-.12-3.46.09-3.72-1.6s1.84-2,3.11-2.55a193,193,0,0,1,22-6.57C251.25,304.75,254.55,303.43,258.48,303.53Z"/></svg>